<svg width="20" height="22" viewBox="0 0 20 22" fill="none" xmlns="http://www.w3.org/2000/svg">
<path d="M0 0.5V17.775C0 18.4872 0.284477 19.1702 0.790846 19.6738C1.29722 20.1775 1.984 20.4604 2.70011 20.4604H15.0091C15.7253 20.4604 16.412 20.1775 16.9184 19.6738C17.4248 19.1702 17.7092 18.4872 17.7092 17.775V3.18541C17.7092 2.47319 17.4248 1.79014 16.9184 1.28653C16.412 0.782917 15.7253 0.5 15.0091 0.5H4.14249" fill="white"/>
<path opacity="0.5" d="M11.001 7.5654L8.54826 6.40982L6.09552 7.5654V1.40283H11.001V7.5654Z" fill="#FFCC66"/>
<path d="M10.7255 8.47012L8.73264 7.53108C8.68494 7.50883 8.6329 7.49729 8.58021 7.49729C8.52752 7.49729 8.47548 7.50883 8.42778 7.53108L6.43493 8.47012C6.38176 8.49603 6.32282 8.50802 6.26369 8.50499C6.20456 8.50196 6.14719 8.48399 6.09698 8.45278C6.04677 8.42157 6.00539 8.37816 5.97674 8.32662C5.94809 8.27509 5.93311 8.21714 5.93323 8.15826V2.40803C5.93323 2.31613 5.96993 2.22798 6.03527 2.163C6.10061 2.09801 6.18923 2.06152 6.28163 2.06152H10.8753C10.9677 2.06152 11.0563 2.09801 11.1217 2.163C11.187 2.22798 11.2237 2.31613 11.2237 2.40803V8.15826C11.2235 8.21667 11.2085 8.2741 11.1801 8.32521C11.1516 8.37631 11.1106 8.41942 11.0609 8.45053C11.0112 8.48165 10.9544 8.49977 10.8957 8.50319C10.8371 8.50662 10.7785 8.49524 10.7255 8.47012Z" stroke="#494949" stroke-width="0.874986" stroke-miterlimit="10"/>
<path d="M1.59906 2.05747V18.8837C1.60229 19.5805 1.88357 20.2474 2.38107 20.738C2.87857 21.2286 3.55157 21.5026 4.25214 21.4998H16.3469C17.0475 21.5026 17.7205 21.2286 18.218 20.738C18.7155 20.2474 18.9967 19.5805 19 18.8837V4.67704C18.9984 4.33213 18.9285 3.9909 18.7943 3.67285C18.6601 3.3548 18.4642 3.06613 18.2179 2.82336C17.9715 2.58059 17.6795 2.38847 17.3585 2.25794C17.0374 2.12742 16.6937 2.06108 16.3469 2.06268L10.4485 2.01416" stroke="#494949" stroke-width="0.874986" stroke-miterlimit="10" stroke-linecap="round"/>
<path d="M6.09552 13.1685H15.1418" stroke="#4D2C19" stroke-width="0.874986" stroke-miterlimit="10" stroke-linecap="round"/>
<path d="M6.09552 15.2476H13.6001" stroke="#4D2C19" stroke-width="0.874986" stroke-miterlimit="10" stroke-linecap="round"/>
<path d="M6.09552 17.3262H11.5097" stroke="#4D2C19" stroke-width="0.874986" stroke-miterlimit="10" stroke-linecap="round"/>
</svg>
