<svg width="13" height="22" viewBox="0 0 13 22" fill="none" xmlns="http://www.w3.org/2000/svg">
<path opacity="0.5" d="M6.34353 6.98683L5.81187 7.17355L3.487 1.41887L3.75931 1.32365C3.98455 1.24327 4.22333 1.20851 4.46193 1.22135C4.70053 1.23419 4.93426 1.29437 5.14974 1.39845C5.36521 1.50253 5.55818 1.64846 5.71758 1.82787C5.87698 2.00728 5.99967 2.21665 6.07863 2.44396L7.10675 5.3773C7.21657 5.69277 7.19792 6.03926 7.05488 6.34091C6.91184 6.64255 6.65606 6.87482 6.34353 6.98683Z" fill="#FF9C4F"/>
<path opacity="0.5" d="M10.8693 20.4903L10.3395 20.677L8.01462 14.9205L8.28693 14.8234C8.51219 14.7433 8.75091 14.7087 8.98943 14.7216C9.22796 14.7346 9.46162 14.7948 9.67703 14.8989C9.89244 15.0029 10.0854 15.1487 10.2448 15.328C10.4043 15.5073 10.5271 15.7165 10.6062 15.9437L11.6381 18.8789C11.6926 19.0356 11.716 19.2016 11.7068 19.3673C11.6977 19.5331 11.6563 19.6955 11.5849 19.8451C11.5135 19.9947 11.4135 20.1287 11.2908 20.2394C11.168 20.3501 11.0248 20.4354 10.8693 20.4903Z" fill="#FF9C4F"/>
<path d="M5.25829 6.25682L4.72663 6.44354C4.27177 6.6051 3.89916 6.94209 3.69074 7.38046C3.48231 7.81883 3.45512 8.32269 3.61514 8.78126L5.0749 12.9469C5.15426 13.1742 5.27726 13.3834 5.43688 13.5627C5.5965 13.742 5.78961 13.8878 6.00517 13.9919C6.22073 14.0959 6.45452 14.1561 6.69318 14.1691C6.93184 14.182 7.17067 14.1474 7.39606 14.0672L7.93885 13.8805C8.09259 13.8258 8.25552 13.8022 8.41834 13.8109C8.58116 13.8197 8.74067 13.8607 8.88776 13.9316C9.03485 14.0025 9.16663 14.102 9.27558 14.2242C9.38453 14.3465 9.46851 14.4892 9.52272 14.6442L10.8491 18.429C10.9034 18.5833 10.927 18.747 10.9184 18.9105C10.9099 19.074 10.8695 19.2343 10.7995 19.382C10.7294 19.5298 10.6312 19.6622 10.5103 19.7716C10.3895 19.8811 10.2484 19.9654 10.0951 20.0198L8.28155 20.6659C7.9708 20.7779 7.63562 20.8023 7.31212 20.7365C6.98862 20.6707 6.68906 20.5171 6.44573 20.2924C4.04832 18.0647 2.22747 15.2801 1.14167 12.1811C0.0558633 9.08199 -0.261966 5.76239 0.21583 2.51124C0.264805 2.18242 0.401745 1.87326 0.611937 1.61698C0.822129 1.36071 1.09763 1.16703 1.40883 1.05672L2.67407 0.604849C3.12903 0.443561 3.62892 0.470965 4.06383 0.681045C4.49875 0.891125 4.8331 1.26669 4.99339 1.72516L6.02152 4.6585C6.12743 4.97258 6.1068 5.316 5.96407 5.61491C5.82134 5.91381 5.5679 6.14432 5.25829 6.25682Z" fill="white"/>
<path d="M6.34353 6.98683L5.81187 7.17355L3.487 1.41887L3.75931 1.32365C3.98455 1.24327 4.22333 1.20851 4.46193 1.22135C4.70053 1.23419 4.93426 1.29437 5.14974 1.39845C5.36521 1.50253 5.55818 1.64846 5.71758 1.82787C5.87698 2.00728 5.99967 2.21665 6.07863 2.44396L7.10675 5.3773C7.21657 5.69277 7.19792 6.03926 7.05488 6.34091C6.91184 6.64255 6.65606 6.87482 6.34353 6.98683Z" stroke="#4D2C19" stroke-width="0.933595" stroke-miterlimit="10"/>
<path d="M11.1839 20.7464L9.37033 21.3924C9.05989 21.5044 8.72497 21.5289 8.40175 21.4631C8.07853 21.3973 7.7793 21.2437 7.53636 21.019C5.13693 18.7927 3.31456 16.0083 2.2283 12.9089C1.14205 9.80946 0.824923 6.48914 1.3046 3.23776C1.35319 2.90879 1.48998 2.59946 1.70022 2.34312C1.91047 2.08678 2.18619 1.89317 2.49761 1.78321L3.49054 1.42847L5.81355 7.18686C5.58803 7.26644 5.38032 7.3901 5.20232 7.55077C5.02432 7.71143 4.87954 7.90593 4.77628 8.12312C4.67301 8.3403 4.6133 8.57589 4.60057 8.81638C4.58783 9.05688 4.62232 9.29755 4.70206 9.52458L6.16182 13.6903C6.24077 13.9176 6.36346 14.1269 6.52286 14.3063C6.68226 14.4858 6.87523 14.6317 7.09071 14.7358C7.30618 14.8398 7.53993 14.9 7.77853 14.9129C8.01713 14.9257 8.25589 14.8909 8.48114 14.8106L9.02391 14.6238C9.17777 14.5692 9.34083 14.5456 9.50373 14.5545C9.66664 14.5634 9.8262 14.6046 9.97331 14.6757C10.1204 14.7468 10.2522 14.8464 10.3611 14.9689C10.4699 15.0913 10.5538 15.2342 10.6078 15.3894L11.9342 19.1723C12.0384 19.4814 12.0182 19.8194 11.8779 20.1137C11.7376 20.408 11.4885 20.6352 11.1839 20.7464Z" stroke="#4D2C19" stroke-width="0.933595" stroke-miterlimit="10"/>
<path d="M8.19742 15.1221L10.6186 20.9421" stroke="#4D2C19" stroke-width="0.933595" stroke-miterlimit="10"/>
</svg>
