<svg width="32" height="32" viewBox="0 0 32 32" fill="none" xmlns="http://www.w3.org/2000/svg">
<path d="M30.704 10.1886V22.2999C30.7031 22.4605 30.6388 22.6142 30.5249 22.7274C30.4111 22.8406 30.2571 22.9042 30.0965 22.9042H23.4459C23.2851 22.905 23.131 22.9693 23.0173 23.0831C22.9035 23.1968 22.8393 23.3508 22.8385 23.5117V30.1497C22.8385 30.2295 22.8227 30.3085 22.7922 30.3822C22.7617 30.4559 22.7169 30.5229 22.6605 30.5793C22.6041 30.6357 22.5372 30.6804 22.4635 30.711C22.3898 30.7415 22.3108 30.7572 22.231 30.7572H10.1134C10.0336 30.7572 9.95463 30.7415 9.88093 30.711C9.80723 30.6804 9.74028 30.6357 9.68388 30.5793C9.62747 30.5229 9.58273 30.4559 9.5522 30.3822C9.52167 30.3085 9.50595 30.2295 9.50595 30.1497V23.5117C9.50612 23.4031 9.47716 23.2964 9.42209 23.2028C9.36702 23.1092 9.28785 23.032 9.19283 22.9794C9.10331 22.931 9.00337 22.9052 8.90164 22.9042H2.25418C2.09361 22.9042 1.93957 22.8406 1.82574 22.7274C1.71191 22.6142 1.64756 22.4605 1.64673 22.2999V10.1886C1.64673 10.1089 1.66245 10.0301 1.69302 9.9566C1.72358 9.88307 1.76838 9.81629 1.82483 9.76013C1.88127 9.70398 1.94826 9.65952 2.02194 9.62934C2.09562 9.59915 2.17455 9.58382 2.25418 9.58423H8.90477C8.98454 9.58423 9.06352 9.56855 9.13722 9.53802C9.21092 9.5075 9.27789 9.46276 9.33429 9.40635C9.3907 9.34994 9.43544 9.28297 9.46597 9.20927C9.4965 9.13558 9.51222 9.05658 9.51222 8.97681V2.32308C9.51305 2.16252 9.5774 2.00881 9.69123 1.89557C9.80506 1.78232 9.9591 1.71875 10.1197 1.71875H22.231C22.3916 1.71875 22.5456 1.78232 22.6594 1.89557C22.7733 2.00881 22.8376 2.16252 22.8385 2.32308V8.97681C22.8385 9.05658 22.8542 9.13558 22.8847 9.20927C22.9152 9.28297 22.96 9.34994 23.0164 9.40635C23.0728 9.46276 23.1397 9.5075 23.2134 9.53802C23.2871 9.56855 23.3661 9.58423 23.4459 9.58423H30.0965C30.1761 9.58382 30.255 9.59915 30.3287 9.62934C30.4024 9.65952 30.4694 9.70398 30.5258 9.76013C30.5823 9.81629 30.6271 9.88307 30.6577 9.9566C30.6882 10.0301 30.704 10.1089 30.704 10.1886Z" stroke="#4D2C19" stroke-width="1.56558" stroke-miterlimit="10"/>
</svg>
